<mxfile host="app.diagrams.net" modified="2024-02-04T22:15:25.981Z" agent="Mozilla/5.0 (Macintosh; Intel Mac OS X 10.15; rv:122.0) Gecko/20100101 Firefox/122.0" version="23.1.1" etag="jEkwo7DqgevYqXrw4dig" type="github">
  <diagram name="Page-1" id="Y9dNhw22XPPO8T-1xCyC">
    <mxGraphModel>
      <root>
        <mxCell id="0" />
        <mxCell id="1" parent="0" />
      </root>
    </mxGraphModel>
  </diagram>
</mxfile>
